<?xml version="1.0" encoding="UTF-8" standalone="no"?>
<!DOCTYPE svg PUBLIC "-//W3C//DTD SVG 1.1//EN"
 "http://www.w3.org/Graphics/SVG/1.1/DTD/svg11.dtd">
<!-- Generated by graphviz version 2.44.1 (20200629.0846)
 -->
<!-- Title: dependencies Pages: 1 -->
<svg width="564pt" height="284pt"
 viewBox="0.00 0.00 564.00 284.00" xmlns="http://www.w3.org/2000/svg" xmlns:xlink="http://www.w3.org/1999/xlink">
<g id="graph0" class="graph" transform="scale(1 1) rotate(0) translate(4 280)">
<title>dependencies</title>
<polygon fill="white" stroke="transparent" points="-4,4 -4,-280 560,-280 560,4 -4,4"/>
<text text-anchor="start" x="257.01" y="-42.4" font-family="sans-serif" font-weight="bold" font-size="14.00">Legend</text>
<polygon fill="#ffffb3" stroke="transparent" points="44,-10 44,-30 64,-30 64,-10 44,-10"/>
<text text-anchor="start" x="67.63" y="-15.4" font-family="sans-serif" font-size="14.00"> &#160;Declarations</text>
<polygon fill="#8dd3c7" stroke="transparent" points="157,-10 157,-30 177,-30 177,-10 157,-10"/>
<text text-anchor="start" x="180.73" y="-15.4" font-family="sans-serif" font-size="14.00"> &#160;Module</text>
<polygon fill="#80b1d3" stroke="transparent" points="243,-10 243,-30 263,-30 263,-10 243,-10"/>
<text text-anchor="start" x="266.78" y="-15.4" font-family="sans-serif" font-size="14.00"> &#160;Bootstrap</text>
<polygon fill="#fdb462" stroke="transparent" points="340,-10 340,-30 360,-30 360,-10 340,-10"/>
<text text-anchor="start" x="363.67" y="-15.4" font-family="sans-serif" font-size="14.00"> &#160;Providers</text>
<polygon fill="#fb8072" stroke="transparent" points="436,-10 436,-30 456,-30 456,-10 436,-10"/>
<text text-anchor="start" x="459.73" y="-15.4" font-family="sans-serif" font-size="14.00"> &#160;Exports</text>
<g id="clust1" class="cluster">
<title>cluster_AuthModule</title>
<polygon fill="none" stroke="black" stroke-dasharray="1,5" points="8,-70 8,-268 548,-268 548,-70 8,-70"/>
</g>
<g id="clust6" class="cluster">
<title>cluster_AuthModule_providers</title>
<polygon fill="none" stroke="black" points="126,-78 126,-130 540,-130 540,-78 126,-78"/>
</g>
<g id="clust3" class="cluster">
<title>cluster_AuthModule_imports</title>
<polygon fill="none" stroke="black" points="16,-78 16,-130 118,-130 118,-78 16,-78"/>
</g>
<g id="clust4" class="cluster">
<title>cluster_AuthModule_exports</title>
<polygon fill="none" stroke="black" points="216,-208 216,-260 322,-260 322,-208 216,-208"/>
</g>
<!-- UserModule -->
<g id="node1" class="node">
<title>UserModule</title>
<polygon fill="#8dd3c7" stroke="black" points="109.98,-122 106.98,-126 85.98,-126 82.98,-122 24.02,-122 24.02,-86 109.98,-86 109.98,-122"/>
<text text-anchor="middle" x="67" y="-99.8" font-family="Times,serif" font-size="14.00">UserModule</text>
</g>
<!-- AuthModule -->
<g id="node2" class="node">
<title>AuthModule</title>
<polygon fill="#8dd3c7" stroke="black" points="312.55,-187 309.55,-191 288.55,-191 285.55,-187 225.45,-187 225.45,-151 312.55,-151 312.55,-187"/>
<text text-anchor="middle" x="269" y="-164.8" font-family="Times,serif" font-size="14.00">AuthModule</text>
</g>
<!-- UserModule&#45;&gt;AuthModule -->
<g id="edge1" class="edge">
<title>UserModule&#45;&gt;AuthModule</title>
<path fill="none" stroke="black" d="M67,-122.11C67,-141.34 67,-169 67,-169 67,-169 215.17,-169 215.17,-169"/>
<polygon fill="black" stroke="black" points="215.17,-172.5 225.17,-169 215.17,-165.5 215.17,-172.5"/>
</g>
<!-- AuthService  -->
<g id="node3" class="node">
<title>AuthService </title>
<polygon fill="#fb8072" stroke="black" points="313.98,-252 224.02,-252 224.02,-216 313.98,-216 313.98,-252"/>
<text text-anchor="middle" x="269" y="-229.8" font-family="Times,serif" font-size="14.00">AuthService </text>
</g>
<!-- AuthModule&#45;&gt;AuthService  -->
<g id="edge2" class="edge">
<title>AuthModule&#45;&gt;AuthService </title>
<path fill="none" stroke="black" stroke-dasharray="5,2" d="M269,-187.11C269,-187.11 269,-205.99 269,-205.99"/>
<polygon fill="black" stroke="black" points="265.5,-205.99 269,-215.99 272.5,-205.99 265.5,-205.99"/>
</g>
<!-- AuthService -->
<g id="node4" class="node">
<title>AuthService</title>
<ellipse fill="#fdb462" stroke="black" cx="473" cy="-104" rx="59.11" ry="18"/>
<text text-anchor="middle" x="473" y="-99.8" font-family="Times,serif" font-size="14.00">AuthService</text>
</g>
<!-- AuthService&#45;&gt;AuthModule -->
<g id="edge3" class="edge">
<title>AuthService&#45;&gt;AuthModule</title>
<path fill="none" stroke="black" d="M473,-122.11C473,-141.34 473,-169 473,-169 473,-169 322.76,-169 322.76,-169"/>
<polygon fill="black" stroke="black" points="322.76,-165.5 312.76,-169 322.76,-172.5 322.76,-165.5"/>
</g>
<!-- JwtStrategy -->
<g id="node5" class="node">
<title>JwtStrategy</title>
<ellipse fill="#fdb462" stroke="black" cx="339" cy="-104" rx="56.76" ry="18"/>
<text text-anchor="middle" x="339" y="-99.8" font-family="Times,serif" font-size="14.00">JwtStrategy</text>
</g>
<!-- JwtStrategy&#45;&gt;AuthModule -->
<g id="edge4" class="edge">
<title>JwtStrategy&#45;&gt;AuthModule</title>
<path fill="none" stroke="black" d="M297.57,-116.53C297.57,-116.53 297.57,-140.85 297.57,-140.85"/>
<polygon fill="black" stroke="black" points="294.07,-140.85 297.57,-150.85 301.07,-140.85 294.07,-140.85"/>
</g>
<!-- LocalStrategy -->
<g id="node6" class="node">
<title>LocalStrategy</title>
<ellipse fill="#fdb462" stroke="black" cx="199" cy="-104" rx="65.41" ry="18"/>
<text text-anchor="middle" x="199" y="-99.8" font-family="Times,serif" font-size="14.00">LocalStrategy</text>
</g>
<!-- LocalStrategy&#45;&gt;AuthModule -->
<g id="edge5" class="edge">
<title>LocalStrategy&#45;&gt;AuthModule</title>
<path fill="none" stroke="black" d="M244.71,-116.84C244.71,-116.84 244.71,-140.52 244.71,-140.52"/>
<polygon fill="black" stroke="black" points="241.21,-140.52 244.71,-150.52 248.21,-140.52 241.21,-140.52"/>
</g>
</g>
</svg>
