<?xml version="1.0" encoding="UTF-8" standalone="no"?>
<!DOCTYPE svg PUBLIC "-//W3C//DTD SVG 1.1//EN"
 "http://www.w3.org/Graphics/SVG/1.1/DTD/svg11.dtd">
<!-- Generated by graphviz version 2.44.1 (20200629.0846)
 -->
<!-- Title: dependencies Pages: 1 -->
<svg width="728pt" height="211pt"
 viewBox="0.00 0.00 728.00 211.00" xmlns="http://www.w3.org/2000/svg" xmlns:xlink="http://www.w3.org/1999/xlink">
<g id="graph0" class="graph" transform="scale(1 1) rotate(0) translate(4 207)">
<title>dependencies</title>
<polygon fill="white" stroke="transparent" points="-4,4 -4,-207 724,-207 724,4 -4,4"/>
<text text-anchor="start" x="339.01" y="-42.4" font-family="sans-serif" font-weight="bold" font-size="14.00">Legend</text>
<polygon fill="#ffffb3" stroke="transparent" points="126,-10 126,-30 146,-30 146,-10 126,-10"/>
<text text-anchor="start" x="149.63" y="-15.4" font-family="sans-serif" font-size="14.00"> &#160;Declarations</text>
<polygon fill="#8dd3c7" stroke="transparent" points="239,-10 239,-30 259,-30 259,-10 239,-10"/>
<text text-anchor="start" x="262.73" y="-15.4" font-family="sans-serif" font-size="14.00"> &#160;Module</text>
<polygon fill="#80b1d3" stroke="transparent" points="325,-10 325,-30 345,-30 345,-10 325,-10"/>
<text text-anchor="start" x="348.78" y="-15.4" font-family="sans-serif" font-size="14.00"> &#160;Bootstrap</text>
<polygon fill="#fdb462" stroke="transparent" points="422,-10 422,-30 442,-30 442,-10 422,-10"/>
<text text-anchor="start" x="445.67" y="-15.4" font-family="sans-serif" font-size="14.00"> &#160;Providers</text>
<polygon fill="#fb8072" stroke="transparent" points="518,-10 518,-30 538,-30 538,-10 518,-10"/>
<text text-anchor="start" x="541.73" y="-15.4" font-family="sans-serif" font-size="14.00"> &#160;Exports</text>
<g id="clust1" class="cluster">
<title>cluster_AppModule</title>
<polygon fill="none" stroke="black" stroke-dasharray="1,5" points="8,-70 8,-195 712,-195 712,-70 8,-70"/>
</g>
<g id="clust6" class="cluster">
<title>cluster_AppModule_providers</title>
<polygon fill="none" stroke="black" points="574,-78 574,-130 704,-130 704,-78 574,-78"/>
</g>
<g id="clust3" class="cluster">
<title>cluster_AppModule_imports</title>
<polygon fill="none" stroke="black" points="16,-78 16,-130 566,-130 566,-78 16,-78"/>
</g>
<!-- ArticleModule -->
<g id="node1" class="node">
<title>ArticleModule</title>
<polygon fill="#8dd3c7" stroke="black" points="558.42,-122 555.42,-126 534.42,-126 531.42,-122 459.58,-122 459.58,-86 558.42,-86 558.42,-122"/>
<text text-anchor="middle" x="509" y="-99.8" font-family="Times,serif" font-size="14.00">ArticleModule</text>
</g>
<!-- AppModule -->
<g id="node6" class="node">
<title>AppModule</title>
<polygon fill="#8dd3c7" stroke="black" points="386.66,-187 383.66,-191 362.66,-191 359.66,-187 303.34,-187 303.34,-151 386.66,-151 386.66,-187"/>
<text text-anchor="middle" x="345" y="-164.8" font-family="Times,serif" font-size="14.00">AppModule</text>
</g>
<!-- ArticleModule&#45;&gt;AppModule -->
<g id="edge1" class="edge">
<title>ArticleModule&#45;&gt;AppModule</title>
<path fill="none" stroke="black" d="M509,-122.02C509,-139.37 509,-163 509,-163 509,-163 396.81,-163 396.81,-163"/>
<polygon fill="black" stroke="black" points="396.81,-159.5 386.81,-163 396.81,-166.5 396.81,-159.5"/>
</g>
<!-- AuthModule -->
<g id="node2" class="node">
<title>AuthModule</title>
<polygon fill="#8dd3c7" stroke="black" points="441.55,-122 438.55,-126 417.55,-126 414.55,-122 354.45,-122 354.45,-86 441.55,-86 441.55,-122"/>
<text text-anchor="middle" x="398" y="-99.8" font-family="Times,serif" font-size="14.00">AuthModule</text>
</g>
<!-- AuthModule&#45;&gt;AppModule -->
<g id="edge2" class="edge">
<title>AuthModule&#45;&gt;AppModule</title>
<path fill="none" stroke="black" d="M370.53,-122.11C370.53,-122.11 370.53,-140.99 370.53,-140.99"/>
<polygon fill="black" stroke="black" points="367.03,-140.99 370.53,-150.99 374.03,-140.99 367.03,-140.99"/>
</g>
<!-- MetaModule -->
<g id="node3" class="node">
<title>MetaModule</title>
<polygon fill="#8dd3c7" stroke="black" points="336.31,-122 333.31,-126 312.31,-126 309.31,-122 247.69,-122 247.69,-86 336.31,-86 336.31,-122"/>
<text text-anchor="middle" x="292" y="-99.8" font-family="Times,serif" font-size="14.00">MetaModule</text>
</g>
<!-- MetaModule&#45;&gt;AppModule -->
<g id="edge3" class="edge">
<title>MetaModule&#45;&gt;AppModule</title>
<path fill="none" stroke="black" d="M319.66,-122.11C319.66,-122.11 319.66,-140.99 319.66,-140.99"/>
<polygon fill="black" stroke="black" points="316.16,-140.99 319.66,-150.99 323.16,-140.99 316.16,-140.99"/>
</g>
<!-- PublishModule -->
<g id="node4" class="node">
<title>PublishModule</title>
<polygon fill="#8dd3c7" stroke="black" points="229.56,-122 226.56,-126 205.56,-126 202.56,-122 128.44,-122 128.44,-86 229.56,-86 229.56,-122"/>
<text text-anchor="middle" x="179" y="-99.8" font-family="Times,serif" font-size="14.00">PublishModule</text>
</g>
<!-- PublishModule&#45;&gt;AppModule -->
<g id="edge4" class="edge">
<title>PublishModule&#45;&gt;AppModule</title>
<path fill="none" stroke="black" d="M179,-122.02C179,-139.37 179,-163 179,-163 179,-163 293.11,-163 293.11,-163"/>
<polygon fill="black" stroke="black" points="293.11,-166.5 303.11,-163 293.11,-159.5 293.11,-166.5"/>
</g>
<!-- UserModule -->
<g id="node5" class="node">
<title>UserModule</title>
<polygon fill="#8dd3c7" stroke="black" points="109.98,-122 106.98,-126 85.98,-126 82.98,-122 24.02,-122 24.02,-86 109.98,-86 109.98,-122"/>
<text text-anchor="middle" x="67" y="-99.8" font-family="Times,serif" font-size="14.00">UserModule</text>
</g>
<!-- UserModule&#45;&gt;AppModule -->
<g id="edge5" class="edge">
<title>UserModule&#45;&gt;AppModule</title>
<path fill="none" stroke="black" d="M67,-122.28C67,-143.32 67,-175 67,-175 67,-175 293.08,-175 293.08,-175"/>
<polygon fill="black" stroke="black" points="293.08,-178.5 303.08,-175 293.08,-171.5 293.08,-178.5"/>
</g>
<!-- AppService -->
<g id="node7" class="node">
<title>AppService</title>
<ellipse fill="#fdb462" stroke="black" cx="639" cy="-104" rx="56.74" ry="18"/>
<text text-anchor="middle" x="639" y="-99.8" font-family="Times,serif" font-size="14.00">AppService</text>
</g>
<!-- AppService&#45;&gt;AppModule -->
<g id="edge6" class="edge">
<title>AppService&#45;&gt;AppModule</title>
<path fill="none" stroke="black" d="M639,-122.28C639,-143.32 639,-175 639,-175 639,-175 396.81,-175 396.81,-175"/>
<polygon fill="black" stroke="black" points="396.81,-171.5 386.81,-175 396.81,-178.5 396.81,-171.5"/>
</g>
</g>
</svg>
