<?xml version="1.0" encoding="UTF-8" standalone="no"?>
<!DOCTYPE svg PUBLIC "-//W3C//DTD SVG 1.1//EN"
 "http://www.w3.org/Graphics/SVG/1.1/DTD/svg11.dtd">
<!-- Generated by graphviz version 2.44.1 (20200629.0846)
 -->
<!-- Title: dependencies Pages: 1 -->
<svg width="1443pt" height="363pt"
 viewBox="0.00 0.00 1443.00 363.00" xmlns="http://www.w3.org/2000/svg" xmlns:xlink="http://www.w3.org/1999/xlink">
<g id="graph0" class="graph" transform="scale(1 1) rotate(0) translate(4 359)">
<title>dependencies</title>
<polygon fill="white" stroke="transparent" points="-4,4 -4,-359 1439,-359 1439,4 -4,4"/>
<text text-anchor="start" x="696.51" y="-42.4" font-family="sans-serif" font-weight="bold" font-size="14.00">Legend</text>
<polygon fill="#ffffb3" stroke="transparent" points="483.5,-10 483.5,-30 503.5,-30 503.5,-10 483.5,-10"/>
<text text-anchor="start" x="507.13" y="-15.4" font-family="sans-serif" font-size="14.00"> &#160;Declarations</text>
<polygon fill="#8dd3c7" stroke="transparent" points="596.5,-10 596.5,-30 616.5,-30 616.5,-10 596.5,-10"/>
<text text-anchor="start" x="620.23" y="-15.4" font-family="sans-serif" font-size="14.00"> &#160;Module</text>
<polygon fill="#80b1d3" stroke="transparent" points="682.5,-10 682.5,-30 702.5,-30 702.5,-10 682.5,-10"/>
<text text-anchor="start" x="706.28" y="-15.4" font-family="sans-serif" font-size="14.00"> &#160;Bootstrap</text>
<polygon fill="#fdb462" stroke="transparent" points="779.5,-10 779.5,-30 799.5,-30 799.5,-10 779.5,-10"/>
<text text-anchor="start" x="803.17" y="-15.4" font-family="sans-serif" font-size="14.00"> &#160;Providers</text>
<polygon fill="#fb8072" stroke="transparent" points="875.5,-10 875.5,-30 895.5,-30 895.5,-10 875.5,-10"/>
<text text-anchor="start" x="899.23" y="-15.4" font-family="sans-serif" font-size="14.00"> &#160;Exports</text>
<g id="clust1" class="cluster">
<title>cluster_AppModule</title>
<polygon fill="none" stroke="black" stroke-dasharray="1,5" points="561,-146 561,-347 1159,-347 1159,-146 561,-146"/>
</g>
<g id="clust3" class="cluster">
<title>cluster_AppModule_imports</title>
<polygon fill="none" stroke="black" points="707,-154 707,-282 1151,-282 1151,-154 707,-154"/>
</g>
<g id="clust6" class="cluster">
<title>cluster_AppModule_providers</title>
<polygon fill="none" stroke="black" points="569,-230 569,-282 699,-282 699,-230 569,-230"/>
</g>
<g id="clust7" class="cluster">
<title>cluster_ArticleModule</title>
<polygon fill="none" stroke="black" stroke-dasharray="1,5" points="625,-70 625,-138 791,-138 791,-70 625,-70"/>
</g>
<g id="clust12" class="cluster">
<title>cluster_ArticleModule_providers</title>
<polygon fill="none" stroke="black" points="633,-78 633,-130 783,-130 783,-78 633,-78"/>
</g>
<g id="clust13" class="cluster">
<title>cluster_AuthModule</title>
<polygon fill="none" stroke="black" stroke-dasharray="1,5" points="8,-146 8,-214 553,-214 553,-146 8,-146"/>
</g>
<g id="clust16" class="cluster">
<title>cluster_AuthModule_exports</title>
<polygon fill="none" stroke="black" points="439,-154 439,-206 545,-206 545,-154 439,-154"/>
</g>
<g id="clust18" class="cluster">
<title>cluster_AuthModule_providers</title>
<polygon fill="none" stroke="black" points="16,-154 16,-206 431,-206 431,-154 16,-154"/>
</g>
<g id="clust19" class="cluster">
<title>cluster_MetaModule</title>
<polygon fill="none" stroke="black" stroke-dasharray="1,5" points="799,-70 799,-138 951,-138 951,-70 799,-70"/>
</g>
<g id="clust24" class="cluster">
<title>cluster_MetaModule_providers</title>
<polygon fill="none" stroke="black" points="807,-78 807,-130 943,-130 943,-78 807,-78"/>
</g>
<g id="clust25" class="cluster">
<title>cluster_PublishModule</title>
<polygon fill="none" stroke="black" stroke-dasharray="1,5" points="959,-70 959,-138 1129,-138 1129,-70 959,-70"/>
</g>
<g id="clust30" class="cluster">
<title>cluster_PublishModule_providers</title>
<polygon fill="none" stroke="black" points="967,-78 967,-130 1121,-130 1121,-78 967,-78"/>
</g>
<g id="clust31" class="cluster">
<title>cluster_UserModule</title>
<polygon fill="none" stroke="black" stroke-dasharray="1,5" points="1167,-222 1167,-290 1427,-290 1427,-222 1167,-222"/>
</g>
<g id="clust34" class="cluster">
<title>cluster_UserModule_exports</title>
<polygon fill="none" stroke="black" points="1315,-230 1315,-282 1419,-282 1419,-230 1315,-230"/>
</g>
<g id="clust36" class="cluster">
<title>cluster_UserModule_providers</title>
<polygon fill="none" stroke="black" points="1175,-230 1175,-282 1307,-282 1307,-230 1175,-230"/>
</g>
<!-- ArticleModule -->
<g id="node1" class="node">
<title>ArticleModule</title>
<polygon fill="#8dd3c7" stroke="black" points="813.42,-198 810.42,-202 789.42,-202 786.42,-198 714.58,-198 714.58,-162 813.42,-162 813.42,-198"/>
<text text-anchor="middle" x="764" y="-175.8" font-family="Times,serif" font-size="14.00">ArticleModule</text>
</g>
<!-- AppModule -->
<g id="node6" class="node">
<title>AppModule</title>
<polygon fill="#8dd3c7" stroke="black" points="893.66,-339 890.66,-343 869.66,-343 866.66,-339 810.34,-339 810.34,-303 893.66,-303 893.66,-339"/>
<text text-anchor="middle" x="852" y="-316.8" font-family="Times,serif" font-size="14.00">AppModule</text>
</g>
<!-- ArticleModule&#45;&gt;AppModule -->
<g id="edge1" class="edge">
<title>ArticleModule&#45;&gt;AppModule</title>
<path fill="none" stroke="black" d="M806.47,-198.03C806.47,-237.28 806.47,-327 806.47,-327 806.47,-327 806.83,-327 806.83,-327"/>
<polygon fill="black" stroke="black" points="800.05,-330.5 810.05,-327 800.04,-323.5 800.05,-330.5"/>
</g>
<!-- AuthModule -->
<g id="node2" class="node">
<title>AuthModule</title>
<polygon fill="#8dd3c7" stroke="black" points="802.55,-274 799.55,-278 778.55,-278 775.55,-274 715.45,-274 715.45,-238 802.55,-238 802.55,-274"/>
<text text-anchor="middle" x="759" y="-251.8" font-family="Times,serif" font-size="14.00">AuthModule</text>
</g>
<!-- AuthModule&#45;&gt;AppModule -->
<g id="edge2" class="edge">
<title>AuthModule&#45;&gt;AppModule</title>
<path fill="none" stroke="black" d="M802.75,-265C814,-265 823,-265 823,-265 823,-265 823,-292.97 823,-292.97"/>
<polygon fill="black" stroke="black" points="819.51,-292.97 823,-302.97 826.51,-292.97 819.51,-292.97"/>
</g>
<!-- AuthService  -->
<g id="node9" class="node">
<title>AuthService </title>
<polygon fill="#fb8072" stroke="black" points="536.98,-198 447.02,-198 447.02,-162 536.98,-162 536.98,-198"/>
<text text-anchor="middle" x="492" y="-175.8" font-family="Times,serif" font-size="14.00">AuthService </text>
</g>
<!-- AuthModule&#45;&gt;AuthService  -->
<g id="edge9" class="edge">
<title>AuthModule&#45;&gt;AuthService </title>
<path fill="none" stroke="black" stroke-dasharray="5,2" d="M715.2,-256C707.93,-256 702.71,-256 702.71,-256 702.71,-256 702.71,-180 702.71,-180 702.71,-180 546.94,-180 546.94,-180"/>
<polygon fill="black" stroke="black" points="546.94,-176.5 536.94,-180 546.94,-183.5 546.94,-176.5"/>
</g>
<!-- MetaModule -->
<g id="node3" class="node">
<title>MetaModule</title>
<polygon fill="#8dd3c7" stroke="black" points="919.31,-198 916.31,-202 895.31,-202 892.31,-198 830.69,-198 830.69,-162 919.31,-162 919.31,-198"/>
<text text-anchor="middle" x="875" y="-175.8" font-family="Times,serif" font-size="14.00">MetaModule</text>
</g>
<!-- MetaModule&#45;&gt;AppModule -->
<g id="edge3" class="edge">
<title>MetaModule&#45;&gt;AppModule</title>
<path fill="none" stroke="black" d="M862.34,-198.14C862.34,-198.14 862.34,-292.93 862.34,-292.93"/>
<polygon fill="black" stroke="black" points="858.84,-292.92 862.34,-302.93 865.84,-292.93 858.84,-292.92"/>
</g>
<!-- PublishModule -->
<g id="node4" class="node">
<title>PublishModule</title>
<polygon fill="#8dd3c7" stroke="black" points="1038.56,-198 1035.56,-202 1014.56,-202 1011.56,-198 937.44,-198 937.44,-162 1038.56,-162 1038.56,-198"/>
<text text-anchor="middle" x="988" y="-175.8" font-family="Times,serif" font-size="14.00">PublishModule</text>
</g>
<!-- PublishModule&#45;&gt;AppModule -->
<g id="edge4" class="edge">
<title>PublishModule&#45;&gt;AppModule</title>
<path fill="none" stroke="black" d="M988,-198.21C988,-235.06 988,-315 988,-315 988,-315 903.91,-315 903.91,-315"/>
<polygon fill="black" stroke="black" points="903.91,-311.5 893.91,-315 903.91,-318.5 903.91,-311.5"/>
</g>
<!-- UserModule -->
<g id="node5" class="node">
<title>UserModule</title>
<polygon fill="#8dd3c7" stroke="black" points="1142.98,-198 1139.98,-202 1118.98,-202 1115.98,-198 1057.02,-198 1057.02,-162 1142.98,-162 1142.98,-198"/>
<text text-anchor="middle" x="1100" y="-175.8" font-family="Times,serif" font-size="14.00">UserModule</text>
</g>
<!-- UserModule&#45;&gt;AuthModule -->
<g id="edge8" class="edge">
<title>UserModule&#45;&gt;AuthModule</title>
<path fill="none" stroke="black" d="M1078.51,-198.31C1078.51,-218.15 1078.51,-247 1078.51,-247 1078.51,-247 812.76,-247 812.76,-247"/>
<polygon fill="black" stroke="black" points="812.76,-243.5 802.76,-247 812.76,-250.5 812.76,-243.5"/>
</g>
<!-- UserModule&#45;&gt;AppModule -->
<g id="edge5" class="edge">
<title>UserModule&#45;&gt;AppModule</title>
<path fill="none" stroke="black" d="M1100,-198.03C1100,-237.28 1100,-327 1100,-327 1100,-327 903.79,-327 903.79,-327"/>
<polygon fill="black" stroke="black" points="903.79,-323.5 893.79,-327 903.79,-330.5 903.79,-323.5"/>
</g>
<!-- UserService  -->
<g id="node15" class="node">
<title>UserService </title>
<polygon fill="#fb8072" stroke="black" points="1410.9,-274 1323.1,-274 1323.1,-238 1410.9,-238 1410.9,-274"/>
<text text-anchor="middle" x="1367" y="-251.8" font-family="Times,serif" font-size="14.00">UserService </text>
</g>
<!-- UserModule&#45;&gt;UserService  -->
<g id="edge15" class="edge">
<title>UserModule&#45;&gt;UserService </title>
<path fill="none" stroke="black" stroke-dasharray="5,2" d="M1143.19,-180C1218.76,-180 1367,-180 1367,-180 1367,-180 1367,-227.99 1367,-227.99"/>
<polygon fill="black" stroke="black" points="1363.5,-227.99 1367,-237.99 1370.5,-227.99 1363.5,-227.99"/>
</g>
<!-- AppService -->
<g id="node7" class="node">
<title>AppService</title>
<ellipse fill="#fdb462" stroke="black" cx="634" cy="-256" rx="56.74" ry="18"/>
<text text-anchor="middle" x="634" y="-251.8" font-family="Times,serif" font-size="14.00">AppService</text>
</g>
<!-- AppService&#45;&gt;AppModule -->
<g id="edge6" class="edge">
<title>AppService&#45;&gt;AppModule</title>
<path fill="none" stroke="black" d="M634,-274.02C634,-291.37 634,-315 634,-315 634,-315 800.23,-315 800.23,-315"/>
<polygon fill="black" stroke="black" points="800.23,-318.5 810.23,-315 800.23,-311.5 800.23,-318.5"/>
</g>
<!-- ArticleService -->
<g id="node8" class="node">
<title>ArticleService</title>
<ellipse fill="#fdb462" stroke="black" cx="708" cy="-104" rx="66.61" ry="18"/>
<text text-anchor="middle" x="708" y="-99.8" font-family="Times,serif" font-size="14.00">ArticleService</text>
</g>
<!-- ArticleService&#45;&gt;ArticleModule -->
<g id="edge7" class="edge">
<title>ArticleService&#45;&gt;ArticleModule</title>
<path fill="none" stroke="black" d="M744.8,-119.38C744.8,-119.38 744.8,-151.97 744.8,-151.97"/>
<polygon fill="black" stroke="black" points="741.3,-151.97 744.8,-161.97 748.3,-151.97 741.3,-151.97"/>
</g>
<!-- AuthService -->
<g id="node10" class="node">
<title>AuthService</title>
<ellipse fill="#fdb462" stroke="black" cx="215" cy="-180" rx="59.11" ry="18"/>
<text text-anchor="middle" x="215" y="-175.8" font-family="Times,serif" font-size="14.00">AuthService</text>
</g>
<!-- AuthService&#45;&gt;AuthModule -->
<g id="edge10" class="edge">
<title>AuthService&#45;&gt;AuthModule</title>
<path fill="none" stroke="black" d="M215,-198.11C215,-207.9 215,-218 215,-218 215,-218 759,-218 759,-218 759,-218 759,-227.89 759,-227.89"/>
<polygon fill="black" stroke="black" points="755.5,-227.89 759,-237.89 762.5,-227.89 755.5,-227.89"/>
</g>
<!-- JwtStrategy -->
<g id="node11" class="node">
<title>JwtStrategy</title>
<ellipse fill="#fdb462" stroke="black" cx="81" cy="-180" rx="56.76" ry="18"/>
<text text-anchor="middle" x="81" y="-175.8" font-family="Times,serif" font-size="14.00">JwtStrategy</text>
</g>
<!-- JwtStrategy&#45;&gt;AuthModule -->
<g id="edge11" class="edge">
<title>JwtStrategy&#45;&gt;AuthModule</title>
<path fill="none" stroke="black" d="M81,-198.15C81,-211.74 81,-228 81,-228 81,-228 737.11,-228 737.11,-228 737.11,-228 737.11,-228.98 737.11,-228.98"/>
<polygon fill="black" stroke="black" points="733.61,-227.79 737.11,-237.79 740.61,-227.79 733.61,-227.79"/>
</g>
<!-- LocalStrategy -->
<g id="node12" class="node">
<title>LocalStrategy</title>
<ellipse fill="#fdb462" stroke="black" cx="358" cy="-180" rx="65.41" ry="18"/>
<text text-anchor="middle" x="358" y="-175.8" font-family="Times,serif" font-size="14.00">LocalStrategy</text>
</g>
<!-- LocalStrategy&#45;&gt;AuthModule -->
<g id="edge12" class="edge">
<title>LocalStrategy&#45;&gt;AuthModule</title>
<path fill="none" stroke="black" d="M358,-198.21C358,-203.55 358,-208 358,-208 358,-208 780.89,-208 780.89,-208 780.89,-208 780.89,-227.85 780.89,-227.85"/>
<polygon fill="black" stroke="black" points="777.39,-227.85 780.89,-237.85 784.39,-227.85 777.39,-227.85"/>
</g>
<!-- MetaService -->
<g id="node13" class="node">
<title>MetaService</title>
<ellipse fill="#fdb462" stroke="black" cx="875" cy="-104" rx="59.67" ry="18"/>
<text text-anchor="middle" x="875" y="-99.8" font-family="Times,serif" font-size="14.00">MetaService</text>
</g>
<!-- MetaService&#45;&gt;MetaModule -->
<g id="edge13" class="edge">
<title>MetaService&#45;&gt;MetaModule</title>
<path fill="none" stroke="black" d="M875,-122.01C875,-122.01 875,-151.85 875,-151.85"/>
<polygon fill="black" stroke="black" points="871.5,-151.85 875,-161.85 878.5,-151.85 871.5,-151.85"/>
</g>
<!-- PublishService -->
<g id="node14" class="node">
<title>PublishService</title>
<ellipse fill="#fdb462" stroke="black" cx="1044" cy="-104" rx="68.94" ry="18"/>
<text text-anchor="middle" x="1044" y="-99.8" font-family="Times,serif" font-size="14.00">PublishService</text>
</g>
<!-- PublishService&#45;&gt;PublishModule -->
<g id="edge14" class="edge">
<title>PublishService&#45;&gt;PublishModule</title>
<path fill="none" stroke="black" d="M1006.91,-119.38C1006.91,-119.38 1006.91,-151.97 1006.91,-151.97"/>
<polygon fill="black" stroke="black" points="1003.41,-151.97 1006.91,-161.97 1010.41,-151.97 1003.41,-151.97"/>
</g>
<!-- UserService -->
<g id="node16" class="node">
<title>UserService</title>
<ellipse fill="#fdb462" stroke="black" cx="1241" cy="-256" rx="58.44" ry="18"/>
<text text-anchor="middle" x="1241" y="-251.8" font-family="Times,serif" font-size="14.00">UserService</text>
</g>
<!-- UserService&#45;&gt;UserModule -->
<g id="edge16" class="edge">
<title>UserService&#45;&gt;UserModule</title>
<path fill="none" stroke="black" d="M1182.65,-256C1152.31,-256 1121.49,-256 1121.49,-256 1121.49,-256 1121.49,-208.01 1121.49,-208.01"/>
<polygon fill="black" stroke="black" points="1124.99,-208.01 1121.49,-198.01 1117.99,-208.01 1124.99,-208.01"/>
</g>
</g>
</svg>
