<?xml version="1.0" encoding="UTF-8" standalone="no"?>
<!DOCTYPE svg PUBLIC "-//W3C//DTD SVG 1.1//EN"
 "http://www.w3.org/Graphics/SVG/1.1/DTD/svg11.dtd">
<!-- Generated by graphviz version 2.44.1 (20200629.0846)
 -->
<!-- Title: dependencies Pages: 1 -->
<svg width="1323pt" height="363pt"
 viewBox="0.00 0.00 1323.00 363.00" xmlns="http://www.w3.org/2000/svg" xmlns:xlink="http://www.w3.org/1999/xlink">
<g id="graph0" class="graph" transform="scale(1 1) rotate(0) translate(4 359)">
<title>dependencies</title>
<polygon fill="white" stroke="transparent" points="-4,4 -4,-359 1319,-359 1319,4 -4,4"/>
<text text-anchor="start" x="636.51" y="-42.4" font-family="sans-serif" font-weight="bold" font-size="14.00">Legend</text>
<polygon fill="#ffffb3" stroke="transparent" points="423.5,-10 423.5,-30 443.5,-30 443.5,-10 423.5,-10"/>
<text text-anchor="start" x="447.13" y="-15.4" font-family="sans-serif" font-size="14.00"> &#160;Declarations</text>
<polygon fill="#8dd3c7" stroke="transparent" points="536.5,-10 536.5,-30 556.5,-30 556.5,-10 536.5,-10"/>
<text text-anchor="start" x="560.23" y="-15.4" font-family="sans-serif" font-size="14.00"> &#160;Module</text>
<polygon fill="#80b1d3" stroke="transparent" points="622.5,-10 622.5,-30 642.5,-30 642.5,-10 622.5,-10"/>
<text text-anchor="start" x="646.28" y="-15.4" font-family="sans-serif" font-size="14.00"> &#160;Bootstrap</text>
<polygon fill="#fdb462" stroke="transparent" points="719.5,-10 719.5,-30 739.5,-30 739.5,-10 719.5,-10"/>
<text text-anchor="start" x="743.17" y="-15.4" font-family="sans-serif" font-size="14.00"> &#160;Providers</text>
<polygon fill="#fb8072" stroke="transparent" points="815.5,-10 815.5,-30 835.5,-30 835.5,-10 815.5,-10"/>
<text text-anchor="start" x="839.23" y="-15.4" font-family="sans-serif" font-size="14.00"> &#160;Exports</text>
<g id="clust1" class="cluster">
<title>cluster_AppModule</title>
<polygon fill="none" stroke="black" stroke-dasharray="1,5" points="561,-146 561,-347 1039,-347 1039,-146 561,-146"/>
</g>
<g id="clust3" class="cluster">
<title>cluster_AppModule_imports</title>
<polygon fill="none" stroke="black" points="707,-154 707,-282 1031,-282 1031,-154 707,-154"/>
</g>
<g id="clust6" class="cluster">
<title>cluster_AppModule_providers</title>
<polygon fill="none" stroke="black" points="569,-230 569,-282 699,-282 699,-230 569,-230"/>
</g>
<g id="clust7" class="cluster">
<title>cluster_ArticleModule</title>
<polygon fill="none" stroke="black" stroke-dasharray="1,5" points="653,-70 653,-138 819,-138 819,-70 653,-70"/>
</g>
<g id="clust12" class="cluster">
<title>cluster_ArticleModule_providers</title>
<polygon fill="none" stroke="black" points="661,-78 661,-130 811,-130 811,-78 661,-78"/>
</g>
<g id="clust13" class="cluster">
<title>cluster_AuthModule</title>
<polygon fill="none" stroke="black" stroke-dasharray="1,5" points="8,-146 8,-214 553,-214 553,-146 8,-146"/>
</g>
<g id="clust16" class="cluster">
<title>cluster_AuthModule_exports</title>
<polygon fill="none" stroke="black" points="439,-154 439,-206 545,-206 545,-154 439,-154"/>
</g>
<g id="clust18" class="cluster">
<title>cluster_AuthModule_providers</title>
<polygon fill="none" stroke="black" points="16,-154 16,-206 431,-206 431,-154 16,-154"/>
</g>
<g id="clust19" class="cluster">
<title>cluster_MetaModule</title>
<polygon fill="none" stroke="black" stroke-dasharray="1,5" points="827,-70 827,-138 979,-138 979,-70 827,-70"/>
</g>
<g id="clust24" class="cluster">
<title>cluster_MetaModule_providers</title>
<polygon fill="none" stroke="black" points="835,-78 835,-130 971,-130 971,-78 835,-78"/>
</g>
<g id="clust25" class="cluster">
<title>cluster_UserModule</title>
<polygon fill="none" stroke="black" stroke-dasharray="1,5" points="1047,-222 1047,-290 1307,-290 1307,-222 1047,-222"/>
</g>
<g id="clust28" class="cluster">
<title>cluster_UserModule_exports</title>
<polygon fill="none" stroke="black" points="1195,-230 1195,-282 1299,-282 1299,-230 1195,-230"/>
</g>
<g id="clust30" class="cluster">
<title>cluster_UserModule_providers</title>
<polygon fill="none" stroke="black" points="1055,-230 1055,-282 1187,-282 1187,-230 1055,-230"/>
</g>
<!-- ArticleModule -->
<g id="node1" class="node">
<title>ArticleModule</title>
<polygon fill="#8dd3c7" stroke="black" points="813.42,-198 810.42,-202 789.42,-202 786.42,-198 714.58,-198 714.58,-162 813.42,-162 813.42,-198"/>
<text text-anchor="middle" x="764" y="-175.8" font-family="Times,serif" font-size="14.00">ArticleModule</text>
</g>
<!-- AppModule -->
<g id="node5" class="node">
<title>AppModule</title>
<polygon fill="#8dd3c7" stroke="black" points="863.66,-339 860.66,-343 839.66,-343 836.66,-339 780.34,-339 780.34,-303 863.66,-303 863.66,-339"/>
<text text-anchor="middle" x="822" y="-316.8" font-family="Times,serif" font-size="14.00">AppModule</text>
</g>
<!-- ArticleModule&#45;&gt;AppModule -->
<g id="edge1" class="edge">
<title>ArticleModule&#45;&gt;AppModule</title>
<path fill="none" stroke="black" d="M807.99,-198.14C807.99,-198.14 807.99,-292.93 807.99,-292.93"/>
<polygon fill="black" stroke="black" points="804.49,-292.92 807.99,-302.93 811.49,-292.93 804.49,-292.92"/>
</g>
<!-- AuthModule -->
<g id="node2" class="node">
<title>AuthModule</title>
<polygon fill="#8dd3c7" stroke="black" points="802.55,-274 799.55,-278 778.55,-278 775.55,-274 715.45,-274 715.45,-238 802.55,-238 802.55,-274"/>
<text text-anchor="middle" x="759" y="-251.8" font-family="Times,serif" font-size="14.00">AuthModule</text>
</g>
<!-- AuthModule&#45;&gt;AppModule -->
<g id="edge2" class="edge">
<title>AuthModule&#45;&gt;AppModule</title>
<path fill="none" stroke="black" d="M791.47,-274.11C791.47,-274.11 791.47,-292.99 791.47,-292.99"/>
<polygon fill="black" stroke="black" points="787.97,-292.99 791.47,-302.99 794.97,-292.99 787.97,-292.99"/>
</g>
<!-- AuthService  -->
<g id="node8" class="node">
<title>AuthService </title>
<polygon fill="#fb8072" stroke="black" points="536.98,-198 447.02,-198 447.02,-162 536.98,-162 536.98,-198"/>
<text text-anchor="middle" x="492" y="-175.8" font-family="Times,serif" font-size="14.00">AuthService </text>
</g>
<!-- AuthModule&#45;&gt;AuthService  -->
<g id="edge8" class="edge">
<title>AuthModule&#45;&gt;AuthService </title>
<path fill="none" stroke="black" stroke-dasharray="5,2" d="M715.2,-256C707.93,-256 702.71,-256 702.71,-256 702.71,-256 702.71,-180 702.71,-180 702.71,-180 546.94,-180 546.94,-180"/>
<polygon fill="black" stroke="black" points="546.94,-176.5 536.94,-180 546.94,-183.5 546.94,-176.5"/>
</g>
<!-- MetaModule -->
<g id="node3" class="node">
<title>MetaModule</title>
<polygon fill="#8dd3c7" stroke="black" points="919.31,-198 916.31,-202 895.31,-202 892.31,-198 830.69,-198 830.69,-162 919.31,-162 919.31,-198"/>
<text text-anchor="middle" x="875" y="-175.8" font-family="Times,serif" font-size="14.00">MetaModule</text>
</g>
<!-- MetaModule&#45;&gt;AppModule -->
<g id="edge3" class="edge">
<title>MetaModule&#45;&gt;AppModule</title>
<path fill="none" stroke="black" d="M847.34,-198.14C847.34,-198.14 847.34,-292.93 847.34,-292.93"/>
<polygon fill="black" stroke="black" points="843.84,-292.92 847.34,-302.93 850.84,-292.93 843.84,-292.92"/>
</g>
<!-- UserModule -->
<g id="node4" class="node">
<title>UserModule</title>
<polygon fill="#8dd3c7" stroke="black" points="1022.98,-198 1019.98,-202 998.98,-202 995.98,-198 937.02,-198 937.02,-162 1022.98,-162 1022.98,-198"/>
<text text-anchor="middle" x="980" y="-175.8" font-family="Times,serif" font-size="14.00">UserModule</text>
</g>
<!-- UserModule&#45;&gt;AuthModule -->
<g id="edge7" class="edge">
<title>UserModule&#45;&gt;AuthModule</title>
<path fill="none" stroke="black" d="M958.51,-198.03C958.51,-218.77 958.51,-250 958.51,-250 958.51,-250 812.78,-250 812.78,-250"/>
<polygon fill="black" stroke="black" points="812.78,-246.5 802.78,-250 812.78,-253.5 812.78,-246.5"/>
</g>
<!-- UserModule&#45;&gt;AppModule -->
<g id="edge4" class="edge">
<title>UserModule&#45;&gt;AppModule</title>
<path fill="none" stroke="black" d="M980,-198.14C980,-236.23 980,-321 980,-321 980,-321 873.93,-321 873.93,-321"/>
<polygon fill="black" stroke="black" points="873.93,-317.5 863.93,-321 873.93,-324.5 873.93,-317.5"/>
</g>
<!-- UserService  -->
<g id="node13" class="node">
<title>UserService </title>
<polygon fill="#fb8072" stroke="black" points="1290.9,-274 1203.1,-274 1203.1,-238 1290.9,-238 1290.9,-274"/>
<text text-anchor="middle" x="1247" y="-251.8" font-family="Times,serif" font-size="14.00">UserService </text>
</g>
<!-- UserModule&#45;&gt;UserService  -->
<g id="edge13" class="edge">
<title>UserModule&#45;&gt;UserService </title>
<path fill="none" stroke="black" stroke-dasharray="5,2" d="M1023.19,-180C1098.76,-180 1247,-180 1247,-180 1247,-180 1247,-227.99 1247,-227.99"/>
<polygon fill="black" stroke="black" points="1243.5,-227.99 1247,-237.99 1250.5,-227.99 1243.5,-227.99"/>
</g>
<!-- AppService -->
<g id="node6" class="node">
<title>AppService</title>
<ellipse fill="#fdb462" stroke="black" cx="634" cy="-256" rx="56.74" ry="18"/>
<text text-anchor="middle" x="634" y="-251.8" font-family="Times,serif" font-size="14.00">AppService</text>
</g>
<!-- AppService&#45;&gt;AppModule -->
<g id="edge5" class="edge">
<title>AppService&#45;&gt;AppModule</title>
<path fill="none" stroke="black" d="M634,-274.11C634,-293.34 634,-321 634,-321 634,-321 770.28,-321 770.28,-321"/>
<polygon fill="black" stroke="black" points="770.28,-324.5 780.28,-321 770.28,-317.5 770.28,-324.5"/>
</g>
<!-- ArticleService -->
<g id="node7" class="node">
<title>ArticleService</title>
<ellipse fill="#fdb462" stroke="black" cx="736" cy="-104" rx="66.61" ry="18"/>
<text text-anchor="middle" x="736" y="-99.8" font-family="Times,serif" font-size="14.00">ArticleService</text>
</g>
<!-- ArticleService&#45;&gt;ArticleModule -->
<g id="edge6" class="edge">
<title>ArticleService&#45;&gt;ArticleModule</title>
<path fill="none" stroke="black" d="M758.8,-121.25C758.8,-121.25 758.8,-151.76 758.8,-151.76"/>
<polygon fill="black" stroke="black" points="755.3,-151.76 758.8,-161.76 762.3,-151.76 755.3,-151.76"/>
</g>
<!-- AuthService -->
<g id="node9" class="node">
<title>AuthService</title>
<ellipse fill="#fdb462" stroke="black" cx="83" cy="-180" rx="59.11" ry="18"/>
<text text-anchor="middle" x="83" y="-175.8" font-family="Times,serif" font-size="14.00">AuthService</text>
</g>
<!-- AuthService&#45;&gt;AuthModule -->
<g id="edge9" class="edge">
<title>AuthService&#45;&gt;AuthModule</title>
<path fill="none" stroke="black" d="M83,-198.15C83,-211.74 83,-228 83,-228 83,-228 737.11,-228 737.11,-228 737.11,-228 737.11,-228.98 737.11,-228.98"/>
<polygon fill="black" stroke="black" points="733.61,-227.79 737.11,-237.79 740.61,-227.79 733.61,-227.79"/>
</g>
<!-- JwtStrategy -->
<g id="node10" class="node">
<title>JwtStrategy</title>
<ellipse fill="#fdb462" stroke="black" cx="366" cy="-180" rx="56.76" ry="18"/>
<text text-anchor="middle" x="366" y="-175.8" font-family="Times,serif" font-size="14.00">JwtStrategy</text>
</g>
<!-- JwtStrategy&#45;&gt;AuthModule -->
<g id="edge10" class="edge">
<title>JwtStrategy&#45;&gt;AuthModule</title>
<path fill="none" stroke="black" d="M366,-198.21C366,-203.55 366,-208 366,-208 366,-208 780.89,-208 780.89,-208 780.89,-208 780.89,-227.85 780.89,-227.85"/>
<polygon fill="black" stroke="black" points="777.39,-227.85 780.89,-237.85 784.39,-227.85 777.39,-227.85"/>
</g>
<!-- LocalStrategy -->
<g id="node11" class="node">
<title>LocalStrategy</title>
<ellipse fill="#fdb462" stroke="black" cx="226" cy="-180" rx="65.41" ry="18"/>
<text text-anchor="middle" x="226" y="-175.8" font-family="Times,serif" font-size="14.00">LocalStrategy</text>
</g>
<!-- LocalStrategy&#45;&gt;AuthModule -->
<g id="edge11" class="edge">
<title>LocalStrategy&#45;&gt;AuthModule</title>
<path fill="none" stroke="black" d="M226,-198.11C226,-207.9 226,-218 226,-218 226,-218 759,-218 759,-218 759,-218 759,-227.89 759,-227.89"/>
<polygon fill="black" stroke="black" points="755.5,-227.89 759,-237.89 762.5,-227.89 755.5,-227.89"/>
</g>
<!-- MetaService -->
<g id="node12" class="node">
<title>MetaService</title>
<ellipse fill="#fdb462" stroke="black" cx="903" cy="-104" rx="59.67" ry="18"/>
<text text-anchor="middle" x="903" y="-99.8" font-family="Times,serif" font-size="14.00">MetaService</text>
</g>
<!-- MetaService&#45;&gt;MetaModule -->
<g id="edge12" class="edge">
<title>MetaService&#45;&gt;MetaModule</title>
<path fill="none" stroke="black" d="M881.16,-120.87C881.16,-120.87 881.16,-151.85 881.16,-151.85"/>
<polygon fill="black" stroke="black" points="877.66,-151.85 881.16,-161.85 884.66,-151.85 877.66,-151.85"/>
</g>
<!-- UserService -->
<g id="node14" class="node">
<title>UserService</title>
<ellipse fill="#fdb462" stroke="black" cx="1121" cy="-256" rx="58.44" ry="18"/>
<text text-anchor="middle" x="1121" y="-251.8" font-family="Times,serif" font-size="14.00">UserService</text>
</g>
<!-- UserService&#45;&gt;UserModule -->
<g id="edge14" class="edge">
<title>UserService&#45;&gt;UserModule</title>
<path fill="none" stroke="black" d="M1065.79,-262C1034.48,-262 1001.49,-262 1001.49,-262 1001.49,-262 1001.49,-208.2 1001.49,-208.2"/>
<polygon fill="black" stroke="black" points="1004.99,-208.2 1001.49,-198.2 997.99,-208.2 1004.99,-208.2"/>
</g>
</g>
</svg>
